<svg width="150" height="150" viewBox="0 0 150 150" fill="none" xmlns="http://www.w3.org/2000/svg">
<path d="M128.583 87.25C131.326 87.5823 133.967 88.4911 136.333 89.9167H136.542C139.007 78.285 138.126 66.193 134 55.0417C133.616 54.0108 132.839 53.1738 131.84 52.7132C130.841 52.2527 129.7 52.206 128.667 52.5833C127.636 52.9677 126.799 53.7441 126.338 54.7433C125.878 55.7425 125.831 56.8832 126.208 57.9167C129.65 67.2972 130.471 77.438 128.583 87.25ZM109.708 119.083C102.448 125.14 93.7283 129.191 84.4167 130.833C83.8695 130.88 83.3368 131.034 82.8491 131.286C82.3614 131.538 81.9282 131.884 81.5741 132.304C81.2201 132.724 80.9522 133.209 80.7858 133.733C80.6194 134.256 80.5577 134.807 80.6042 135.354C80.6507 135.901 80.8045 136.434 81.0569 136.922C81.3092 137.409 81.6552 137.843 82.075 138.197C82.4948 138.551 82.9802 138.819 83.5035 138.985C84.0269 139.151 84.5778 139.213 85.125 139.167H85.875C96.9734 137.209 107.346 132.318 115.917 125V124.708C113.466 123.303 111.348 121.384 109.708 119.083ZM65.0833 130.583C58.7795 129.406 52.73 127.136 47.2083 123.875C44.8455 122.484 42.5767 120.939 40.4167 119.25C38.827 121.583 36.7518 123.544 34.3333 125C37.0401 127.281 39.9242 129.343 42.9583 131.167C49.3223 134.915 56.2857 137.537 63.5417 138.917H64.3333C65.4384 139.016 66.5377 138.673 67.3895 137.961C68.2412 137.25 68.7756 136.23 68.875 135.125C68.9745 134.02 68.6309 132.921 67.9198 132.069C67.2087 131.217 66.1884 130.683 65.0833 130.583ZM19 88.125C19.8416 88.0635 20.6774 87.9381 21.5 87.75C19.5138 77.9251 20.2927 67.7418 23.75 58.3333C24.1313 57.2946 24.0842 56.1469 23.6193 55.1428C23.1544 54.1387 22.3096 53.3604 21.2708 52.9792C20.2321 52.5979 19.0844 52.6449 18.0803 53.1099C17.0762 53.5748 16.2979 54.4196 15.9167 55.4583C11.7896 66.7013 10.9797 78.8933 13.5833 90.5833C15.2563 89.4985 17.082 88.6699 19 88.125Z" fill="#412358"/>
<path d="M132.917 95.8334C131.429 94.8865 129.768 94.2443 128.03 93.9439C126.292 93.6435 124.511 93.6909 122.792 94.0834C120.614 94.6588 118.611 95.7606 116.958 97.2917L100.833 87.9584C103.373 81.6842 103.607 74.713 101.494 68.2825C99.3811 61.8521 95.0578 56.3784 89.2917 52.8334L88.8333 52.5417C85.7238 50.7714 82.2987 49.625 78.75 49.1667V33.3334C82.0704 32.34 84.8775 30.1002 86.5834 27.0834C88.424 23.9674 88.962 20.2513 88.0806 16.7412C87.1991 13.2312 84.9694 10.2101 81.875 8.33337C80.3675 7.45142 78.6992 6.8792 76.9678 6.65025C75.2363 6.4213 73.4766 6.54022 71.7917 7.00003C70.0545 7.4429 68.4229 8.22733 66.9921 9.30757C65.5613 10.3878 64.36 11.7422 63.4583 13.2917C61.6696 16.3926 61.1607 20.069 62.04 23.5392C62.9192 27.0094 65.1172 29.9999 68.1667 31.875C69.123 32.4997 70.1604 32.9904 71.25 33.3334V49.1667C67.0537 49.7426 63.0457 51.2744 59.5348 53.6438C56.024 56.0133 53.104 59.1573 51 62.8334C48.8255 66.5927 47.5376 70.7987 47.2344 75.131C46.9311 79.4633 47.6205 83.8077 49.25 87.8334L32.5834 97.375C31.9925 96.8593 31.3659 96.3859 30.7083 95.9584C29.19 95.0852 27.5146 94.5198 25.7777 94.2943C24.0408 94.0689 22.2765 94.1878 20.5856 94.6444C18.8947 95.101 17.3103 95.8863 15.9229 96.9553C14.5356 98.0244 13.3725 99.3563 12.5 100.875C10.7001 103.961 10.172 107.626 11.0275 111.095C11.883 114.564 14.0549 117.563 17.0833 119.458C19.1583 120.71 21.5351 121.373 23.9584 121.375C25.0553 121.379 26.148 121.239 27.2084 120.958C28.986 120.505 30.6525 119.693 32.1062 118.574C33.5598 117.455 34.7701 116.051 35.663 114.448C36.556 112.846 37.1129 111.078 37.2998 109.253C37.4867 107.428 37.2996 105.584 36.75 103.833L52.9167 94.5C55.0904 97.3306 57.7584 99.7445 60.7917 101.625C66.6168 105.298 73.6238 106.61 80.3833 105.294C87.1427 103.978 93.1454 100.132 97.1667 94.5417L113.125 103.75C112.373 106.592 112.554 109.6 113.642 112.331C114.73 115.062 116.667 117.371 119.167 118.917C121.225 120.171 123.589 120.834 126 120.833C128.331 120.842 130.623 120.234 132.643 119.07C134.662 117.907 136.338 116.229 137.5 114.208C139.236 111.142 139.729 107.525 138.876 104.106C138.023 100.687 135.89 97.7253 132.917 95.8334ZM29.1667 110.917C28.7505 111.597 28.1993 112.184 27.5471 112.643C26.895 113.101 26.1557 113.422 25.375 113.583C24.6162 113.801 23.8203 113.858 23.0382 113.751C22.2561 113.643 21.5051 113.373 20.8334 112.958C19.4707 112.113 18.4911 110.77 18.1021 109.214C17.7132 107.658 17.9456 106.012 18.75 104.625C19.1438 103.943 19.6718 103.347 20.3019 102.875C20.9321 102.402 21.6515 102.062 22.4167 101.875C22.8776 101.743 23.354 101.673 23.8333 101.667C24.9409 101.669 26.0248 101.987 26.9583 102.583C28.3421 103.409 29.3479 104.743 29.7606 106.3C30.1733 107.857 29.9602 109.514 29.1667 110.917ZM69.9167 17.0417C70.3105 16.3595 70.8384 15.7641 71.4686 15.2915C72.0988 14.8189 72.8182 14.4788 73.5833 14.2917C74.0443 14.1599 74.5207 14.0898 75 14.0834C76.057 14.0842 77.094 14.3722 78 14.9167C79.3626 15.7622 80.3423 17.1052 80.7312 18.661C81.1202 20.2167 80.8878 21.8628 80.0833 23.25C79.6895 23.9322 79.1616 24.5276 78.5314 25.0002C77.9012 25.4729 77.1819 25.813 76.4167 26C75.6765 26.2001 74.9034 26.2478 74.1443 26.1404C73.3851 26.033 72.6556 25.7726 72 25.375C70.6374 24.5295 69.6577 23.1865 69.2688 21.6308C68.8799 20.075 69.1123 18.429 69.9167 17.0417ZM79.9584 97.5417C77.3814 98.2056 74.6978 98.3486 72.0649 97.9622C69.432 97.5759 66.9026 96.668 64.625 95.2917C59.9242 92.4059 56.5386 87.796 55.1917 82.4471C53.8447 77.0982 54.6433 71.4346 57.4167 66.6667C59.2044 63.5872 61.7694 61.0311 64.8552 59.2543C67.9409 57.4774 71.4392 56.542 75 56.5417C78.6059 56.5312 82.1475 57.4958 85.25 59.3334C89.9508 62.2191 93.3364 66.8291 94.6834 72.178C96.0303 77.5269 95.2318 83.1904 92.4584 87.9584C91.1206 90.3097 89.3252 92.3692 87.1783 94.0152C85.0314 95.6612 82.5764 96.8603 79.9584 97.5417ZM131 110.375C130.195 111.753 128.876 112.757 127.333 113.167C126.59 113.361 125.816 113.401 125.057 113.287C124.297 113.172 123.569 112.905 122.917 112.5C121.554 111.655 120.574 110.311 120.185 108.756C119.797 107.2 120.029 105.554 120.833 104.167C121.21 103.429 121.739 102.78 122.385 102.263C123.032 101.746 123.781 101.372 124.583 101.167C125.055 101.126 125.529 101.126 126 101.167C127.014 101.156 128.01 101.431 128.875 101.958C130.267 102.798 131.271 104.153 131.669 105.729C132.067 107.306 131.827 108.975 131 110.375ZM33.5417 41.6667C39.511 34.6152 47.1847 29.2077 55.8333 25.9584C54.9961 23.1646 54.7548 20.2263 55.125 17.3334C44.2905 20.9557 34.6421 27.4504 27.2084 36.125C26.4735 36.9649 26.1023 38.0623 26.1766 39.1758C26.2508 40.2893 26.7643 41.3277 27.6042 42.0625C28.444 42.7974 29.5414 43.1685 30.6549 43.0943C31.7684 43.0201 32.8068 42.5066 33.5417 41.6667Z" fill="#412358"/>
<path d="M102.792 30.125C107.921 33.2019 112.51 37.1011 116.375 41.6667C116.731 42.0825 117.165 42.4242 117.652 42.6723C118.14 42.9204 118.672 43.07 119.218 43.1126C119.763 43.1551 120.312 43.0898 120.832 42.9204C121.352 42.7509 121.834 42.4807 122.25 42.125C122.666 41.7693 123.008 41.3352 123.256 40.8475C123.504 40.3598 123.653 39.828 123.696 39.2824C123.739 38.7369 123.673 38.1883 123.504 37.668C123.334 37.1477 123.064 36.6659 122.708 36.25C118.258 30.9707 112.965 26.4652 107.042 22.9167C103.156 20.6614 99.0513 18.8047 94.7917 17.375C95.2087 20.2476 94.9954 23.1765 94.1667 25.9583C97.1511 27.1084 100.036 28.502 102.792 30.125Z" fill="#412358"/>
</svg>
