<svg width="168" height="168" viewBox="0 0 168 168" fill="none" xmlns="http://www.w3.org/2000/svg">
<path d="M54 46.5H94M54 71.5H114M89 96.5H114M89 121.5H114M34 142.75V25.25C34 24.2554 34.3161 23.3016 34.8787 22.5983C35.4413 21.8951 36.2043 21.5 37 21.5H115.26C116.055 21.5009 116.818 21.8965 117.38 22.6L133.12 42.275C133.4 42.6244 133.622 43.0395 133.773 43.4964C133.924 43.9533 134.001 44.4431 134 44.9375V142.75C134 143.242 133.922 143.73 133.772 144.185C133.621 144.64 133.4 145.053 133.121 145.402C132.843 145.75 132.512 146.026 132.148 146.215C131.784 146.403 131.394 146.5 131 146.5H37C36.606 146.5 36.2159 146.403 35.8519 146.215C35.488 146.026 35.1573 145.75 34.8787 145.402C34.6001 145.053 34.3791 144.64 34.2284 144.185C34.0776 143.73 34 143.242 34 142.75Z" stroke="#412358" stroke-width="5" stroke-linecap="round" stroke-linejoin="round"/>
<path d="M114 21.5V42.75C114 43.2425 114.078 43.7301 114.228 44.1851C114.379 44.64 114.6 45.0534 114.879 45.4017C115.157 45.7499 115.488 46.0261 115.852 46.2145C116.216 46.403 116.606 46.5 117 46.5H134M54 121.5V96.5H69V121.5H54Z" stroke="#412358" stroke-width="5" stroke-linecap="round" stroke-linejoin="round"/>
</svg>
