<svg width="76" height="118" viewBox="0 0 76 118" fill="none" xmlns="http://www.w3.org/2000/svg">
<path d="M67.5556 0H8.44444C6.20484 0 4.05696 0.888007 2.47332 2.46867C0.889682 4.04934 0 6.19318 0 8.42857V109.571C0 111.807 0.889682 113.951 2.47332 115.531C4.05696 117.112 6.20484 118 8.44444 118H67.5556C69.7952 118 71.943 117.112 73.5267 115.531C75.1103 113.951 76 111.807 76 109.571V8.42857C76 6.19318 75.1103 4.04934 73.5267 2.46867C71.943 0.888007 69.7952 0 67.5556 0ZM42.2222 109.571H33.7778V101.143H42.2222V109.571ZM8.44444 92.7143V8.42857H67.5556V92.7143H8.44444Z" fill="#412358"/>
</svg>
