<svg width="150" height="150" viewBox="0 0 150 150" fill="none" xmlns="http://www.w3.org/2000/svg">
<path d="M113.462 18.9313C111.25 18.75 108.525 18.75 105.131 18.75H44.875C41.4875 18.75 38.75 18.75 36.5438 18.9313C34.2625 19.1188 32.2625 19.5125 30.4125 20.45C27.471 21.9483 25.0795 24.3397 23.5812 27.2812C22.6437 29.1312 22.25 31.1312 22.0625 33.4062C21.875 35.625 21.875 38.3625 21.875 41.75V81.25C21.875 81.375 21.8833 81.5 21.9 81.625C21.9125 83 21.9646 84.2375 22.0563 85.3375C22.2438 87.6188 22.6375 89.6188 23.575 91.4688C25.0743 94.408 27.4657 96.7971 30.4062 98.2938C32.2562 99.2375 34.2562 99.6312 36.5312 99.8187C38.75 100 41.4875 100 44.875 100H66.1625C66.8067 101.831 68.0034 103.417 69.5876 104.539C71.1717 105.661 73.065 106.264 75.0063 106.264C76.9475 106.264 78.8408 105.661 80.4249 104.539C82.0091 103.417 83.2058 101.831 83.85 100H105.138C108.525 100 111.263 100 113.469 99.8187C115.75 99.6312 117.75 99.2375 119.6 98.2938C122.538 96.796 124.927 94.407 126.425 91.4688C127.369 89.6188 127.763 87.6188 127.95 85.3438C128.043 84.1083 128.095 82.8701 128.106 81.6312L128.125 81.25V41.1125C128.125 38.0125 128.113 35.4875 127.944 33.4125C127.756 31.1313 127.362 29.1312 126.419 27.2812C124.922 24.3407 122.533 21.9493 119.594 20.45C117.744 19.5125 115.744 19.1188 113.469 18.9313M105 93.75H45C41.45 93.75 38.975 93.75 37.0438 93.5875C35.1562 93.4375 34.0687 93.15 33.2437 92.725C31.4791 91.8276 30.0439 90.3945 29.1438 88.6312C28.725 87.8063 28.4375 86.725 28.2875 84.8313L28.25 84.375H121.75L121.731 84.5813L121.713 84.8313C121.563 86.725 121.275 87.8063 120.856 88.6312C119.957 90.3968 118.522 91.8322 116.756 92.7312C115.931 93.15 114.844 93.4375 112.956 93.5875C111.031 93.75 108.55 93.75 105 93.75ZM121.875 78.125H28.125V41.2187C28.09 38.6694 28.1526 36.1196 28.3125 33.575C28.475 31.8938 28.75 30.8875 29.1438 30.1187C30.0428 28.3532 31.4782 26.9178 33.2437 26.0188C34.0687 25.6 35.1562 25.3125 37.0438 25.1625C38.975 25 41.45 25 45 25H105C108.55 25 111.031 25 112.956 25.1625C114.844 25.3125 115.931 25.6 116.756 26.0188C118.522 26.9178 119.957 28.3532 120.856 30.1187C121.275 30.9437 121.563 32.0312 121.713 33.9188C121.875 35.85 121.875 38.325 121.875 41.875V78.125Z" fill="#412358"/>
<path d="M62.5 106.25C63.3288 106.25 64.1237 106.579 64.7097 107.165C65.2958 107.751 65.625 108.546 65.625 109.375V111.15C65.625 117.05 61.6125 122.194 55.8875 123.625L53.4188 124.244C53.3325 124.271 53.2584 124.328 53.2095 124.404C53.1606 124.48 53.14 124.571 53.1511 124.661C53.1623 124.751 53.2045 124.834 53.2705 124.896C53.3365 124.958 53.4221 124.995 53.5125 125H96.4875C96.5779 124.995 96.6635 124.958 96.7295 124.896C96.7955 124.834 96.8378 124.751 96.8489 124.661C96.86 124.571 96.8394 124.48 96.7905 124.404C96.7416 124.328 96.6676 124.271 96.5813 124.244L94.1125 123.619C91.3333 122.92 88.8665 121.315 87.1027 119.056C85.339 116.798 84.379 114.016 84.375 111.15V109.375C84.375 108.546 84.7043 107.751 85.2903 107.165C85.8764 106.579 86.6712 106.25 87.5 106.25C88.3288 106.25 89.1237 106.579 89.7097 107.165C90.2958 107.751 90.625 108.546 90.625 109.375V111.15C90.625 114.181 92.6875 116.825 95.625 117.562L98.1 118.181C99.6744 118.57 101.052 119.523 101.971 120.859C102.891 122.195 103.289 123.821 103.09 125.431C102.892 127.04 102.11 128.521 100.893 129.594C99.6767 130.666 98.1093 131.255 96.4875 131.25H53.5125C51.8979 131.243 50.3413 130.648 49.134 129.575C47.9268 128.503 47.1517 127.028 46.954 125.425C46.7563 123.823 47.1494 122.203 48.0599 120.87C48.9703 119.536 50.3356 118.581 51.9 118.181L54.3688 117.556C57.3063 116.825 59.375 114.181 59.375 111.15V109.375C59.375 108.546 59.7042 107.751 60.2903 107.165C60.8764 106.579 61.6712 106.25 62.5 106.25Z" fill="#412358"/>
</svg>
